<svg width="14" height="14" viewBox="0 0 14 14" fill="none" xmlns="http://www.w3.org/2000/svg">
<path d="M1.83711 7.0032C2.44078 7.04774 2.91671 7.55162 2.91671 8.16667V10.5C2.91671 10.8222 3.17787 11.0833 3.50004 11.0833H4.08337V12.25H2.91671C2.27238 12.25 1.75004 11.7277 1.75004 11.0833V7.58333H1.16671C0.844541 7.58333 0.583374 7.32217 0.583374 7C0.583374 6.67783 0.844541 6.41667 1.16671 6.41667H1.75004V2.91667L1.75324 2.8296C1.79778 2.22593 2.30166 1.75 2.91671 1.75H4.08337V2.91667H3.50004C3.17787 2.91667 2.91671 3.17783 2.91671 3.5V5.83333C2.91671 6.47767 2.39437 7 1.75004 7L1.83711 7.0032Z" fill="#526069"/>
<path d="M12.25 11.0833C12.25 11.7277 11.7277 12.25 11.0834 12.25H9.91671V11.0833H10.5C10.8222 11.0833 11.0834 10.8222 11.0834 10.5V8.16667C11.0834 7.55162 11.5593 7.04774 12.163 7.0032L12.25 7C11.6057 7 11.0834 6.47767 11.0834 5.83333V3.5C11.0834 3.17783 10.8222 2.91667 10.5 2.91667H9.91671V1.75H11.0834C11.6984 1.75 12.2023 2.22593 12.2468 2.8296L12.25 2.91667V6.41667H12.8334C13.1555 6.41667 13.4167 6.67783 13.4167 7C13.4167 7.32217 13.1555 7.58333 12.8334 7.58333H12.25V11.0833Z" fill="#526069"/>
<path d="M7.58337 7C7.58337 7.32217 7.32221 7.58333 7.00004 7.58333C6.67787 7.58333 6.41671 7.32217 6.41671 7C6.41671 6.67783 6.67787 6.41667 7.00004 6.41667C7.32221 6.41667 7.58337 6.67783 7.58337 7Z" fill="#526069"/>
<path d="M9.33337 7.58333C9.65554 7.58333 9.91671 7.32217 9.91671 7C9.91671 6.67783 9.65554 6.41667 9.33337 6.41667C9.01121 6.41667 8.75004 6.67783 8.75004 7C8.75004 7.32217 9.01121 7.58333 9.33337 7.58333Z" fill="#526069"/>
<path d="M5.25004 7C5.25004 7.32217 4.98887 7.58333 4.66671 7.58333C4.34454 7.58333 4.08337 7.32217 4.08337 7C4.08337 6.67783 4.34454 6.41667 4.66671 6.41667C4.98887 6.41667 5.25004 6.67783 5.25004 7Z" fill="#526069"/>
</svg>
